<svg version="1.2" xmlns="http://www.w3.org/2000/svg" viewBox="0 0 337 59" width="337" height="59">
	<title>Vector Smart Object-ai</title>
	<style>
		.s0 { fill: #000000 } 
	</style>
	<g id="Artwork">
		<g id="&lt;Group&gt;">
			<g id="&lt;Group&gt;">
				<g id="&lt;Group&gt;">
					<g id="&lt;Group&gt;">
						<path id="&lt;Compound Path&gt;" class="s0" d="m273.4 11.5h-0.1l-10.4 5.2-1.9-8.8 14.1-6.9h9.4v56.6h-11.1z"/>
						<path id="&lt;Compound Path&gt;" fill-rule="evenodd" class="s0" d="m314.8 58.7c-13.7 0-21-12-21.2-29.2 0-17.4 7.8-29.5 21.7-29.5 14.3 0 21.2 12.1 21.2 28.9 0 17.3-6.8 29.8-21.6 29.8zm0.2-8.8c6.4 0 9.9-7.3 9.9-20.7 0-13.2-3.4-20.5-9.9-20.5-5.9 0-10 7.2-10 20.5-0.1 13.6 4 20.7 9.9 20.7z"/>
					</g>
				</g>
				<g id="&lt;Group&gt;">
					<path id="&lt;Compound Path&gt;" fill-rule="evenodd" class="s0" d="m211.3 1.8c4.3-0.7 10.7-1.3 17.7-1.3 8.9 0 14.8 1.5 18.8 4.7 3.2 2.5 5.2 6.5 5.2 11.5 0 7.5-5.7 12.4-10.7 14v0.3c4.1 1.6 6.5 5.5 8 10.5 2 7 3.7 13.8 4.9 16.1h-11.8c-0.9-1.6-2.3-6-4.1-13.2-1.8-7.3-4.6-9.5-10.8-9.7h-5.8v22.9h-11.4zm11.4 24.7h7c7.4 0 11.9-3.4 11.9-8.8 0-6.1-4.8-8.6-11.5-8.6-4 0-6.3 0.3-7.4 0.5z"/>
				</g>
			</g>
			<g id="&lt;Group&gt;">
				<g id="&lt;Group&gt;">
					<path id="&lt;Path&gt;" class="s0" d="m12.8 24h42.3v10h-42.3v1.5c0 0.8 0.1 3.4 0.4 5.1 0.9 4.2 3.2 5.9 8.3 6.6 3.1 0.5 6.5 0.6 12.6 0.6 5.5 0 15.7-0.6 22.1-1.2v10.2c-7.3 0.7-16.8 1.1-23.6 1.1-9.9 0-15.5-0.6-20.2-2.1-7.1-2.3-10.9-7.9-11.4-16.2-0.2-3.3-0.4-6.8-0.4-10.4 0-3.5 0.2-7.1 0.4-10.3 0.5-8.4 4.3-14 11.4-16.3 4.7-1.5 10.3-2 20.2-2 6.8 0 16.3 0.3 23.6 1v10.2c-6.4-0.6-16.6-1.2-22.1-1.2-6.1 0-9.5 0.2-12.6 0.6-5.1 0.8-7.4 2.5-8.3 6.6-0.3 1.7-0.4 4.3-0.4 5.2z"/>
					<path id="&lt;Path&gt;" class="s0" d="m143.4 1.9c3.5-0.9 11.9-1.4 16.6-1.4 8 0 15.5 0.4 24.7 1.5v10.7c-9.4-1.7-16.1-2.3-25.5-2.3-3.8 0-7.2 0.2-10.3 0.5-4.4 0.5-5.9 2.6-5.9 6.1 0 3.4 1.5 5.5 5.9 6 3.3 0.4 7 0.5 11.1 0.5 4.8 0.1 11.7 0.6 14.7 1.3 8.8 2.1 12.1 8.1 12.1 15.9 0 7.8-3.3 13.7-12.1 15.8-3.5 0.9-11.8 1.4-16.5 1.4-9.9 0-16.7-0.4-26-1.5v-10.7c9.6 1.8 16.2 2.3 26 2.3 4.1 0 7.7-0.1 11.1-0.5 4.4-0.6 5.8-2.6 5.8-6.2 0-3.7-1.4-5.7-5.8-6.2-3.4-0.4-7-0.5-11.1-0.5v-0.1c-4.8-0.1-11.7-0.5-14.8-1.3-8.7-2-12-8-12-15.6 0-7.7 3.3-13.7 12-15.7z"/>
					<path id="&lt;Compound Path&gt;" fill-rule="evenodd" class="s0" d="m61.7 29.2c0-3.5 0.2-7.6 0.4-10.9 0.4-8.3 4.3-13.9 11.4-16.2 4.7-1.5 10.2-2.1 20.2-2.1 10 0 15.5 0.6 20.2 2.1 7.1 2.3 11 7.9 11.4 16.2 0.2 3.3 0.4 7.4 0.4 10.9 0 3.6-0.2 7.7-0.4 10.9-0.4 8.4-4.3 13.9-11.4 16.2-4.7 1.5-10.2 2.1-20.2 2.1-10 0-15.5-0.6-20.2-2.1-7.1-2.3-11-7.8-11.4-16.2-0.2-3.2-0.4-7.3-0.4-10.9zm12.5 10.5c0.4 4 2.2 6.3 6.4 7.6 2.7 0.7 7.6 1.1 13.1 1.1 5.5 0 10.4-0.4 13.1-1.1 4.2-1.3 6-3.6 6.4-7.6 0.4-3.8 0.4-6.7 0.4-10.5 0-3.8 0-6.7-0.4-10.5-0.4-4-2.2-6.3-6.4-7.5-2.7-0.8-7.6-1.1-13.1-1.1-5.5 0-10.4 0.3-13.1 1.1-4.2 1.2-6 3.5-6.4 7.5-0.3 3.8-0.4 6.7-0.4 10.5 0 3.8 0.1 6.7 0.4 10.5z"/>
				</g>
			</g>
		</g>
	</g>
</svg>